PathFileType	4	(X/Y/Z)	/Users/itak/Documents/Research/Walk-IL/dataset/trc/00421_00012.trc
DataRate	CameraRate	NumFrames	NumMarkers	Units	OrigDataRate	OrigDataStartFrame	OrigNumFrames
100.000000	100.000000	4	53	mm	100.000000	0	564
Frame#	Time	RPSI			LPSI			L3			STRN			T10			C7			CLAV			RBAK			LBAK			LSHO			LUPA			LAEL			LAOL			LWTS			LWPS			LFRA			LIFD			LHPS			LHTS			RSHO			RUPA			RAEL			RAOL			RWTS			RWPS			RFRA			RIFD			RHPS			RBHD			LFHD			RFHD			LBHD			LHIP			RHIP			RASI			LASI			LKNE			LTHI			LANK			LTIP			LTOE			LMT1			LMT5			LHEE			RKNE			RTHI			RANK			RTIP			RTOE			RMT1			RMT5			RHEE			RHTS			
		X1	Y1	Z1	X2	Y2	Z2	X3	Y3	Z3	X4	Y4	Z4	X5	Y5	Z5	X6	Y6	Z6	X7	Y7	Z7	X8	Y8	Z8	X9	Y9	Z9	X10	Y10	Z10	X11	Y11	Z11	X12	Y12	Z12	X13	Y13	Z13	X14	Y14	Z14	X15	Y15	Z15	X16	Y16	Z16	X17	Y17	Z17	X18	Y18	Z18	X19	Y19	Z19	X20	Y20	Z20	X21	Y21	Z21	X22	Y22	Z22	X23	Y23	Z23	X24	Y24	Z24	X25	Y25	Z25	X26	Y26	Z26	X27	Y27	Z27	X28	Y28	Z28	X29	Y29	Z29	X30	Y30	Z30	X31	Y31	Z31	X32	Y32	Z32	X33	Y33	Z33	X34	Y34	Z34	X35	Y35	Z35	X36	Y36	Z36	X37	Y37	Z37	X38	Y38	Z38	X39	Y39	Z39	X40	Y40	Z40	X41	Y41	Z41	X42	Y42	Z42	X43	Y43	Z43	X44	Y44	Z44	X45	Y45	Z45	X46	Y46	Z46	X47	Y47	Z47	X48	Y48	Z48	X49	Y49	Z49	X50	Y50	Z50	X51	Y51	Z51	X52	Y52	Z52	X53	Y53	Z53	

1	0	-1563.643920898438	995.9876708984375	-505.1725463867188	-1571.101928710938	987.3247680664062	-636.1029052734375	-1565.563720703125	1058.68603515625	-569.28662109375	-1331.942749023438	1217.322509765625	-566.5849609375	-1569.22265625	1158.550903320312	-571.2258911132812	-1547.553100585938	1409.694702148438	-578.0664672851562	-1388.64453125	1335.072875976562	-566.998291015625	-1583.252685546875	1261.35546875	-510.3577270507812	-1552.96044921875	1372.573974609375	-684.2706298828125	-1464.10546875	1393.142822265625	-728.3807373046875	-1464.127075195312	1276.291870117188	-801.919677734375	-1413.372314453125	1081.24609375	-814.0026245117188	-1476.751098632812	1055.025390625	-764.0684814453125	-1291.312744140625	886.1219482421875	-748.6847534179688	-1342.092407226562	856.5261840820312	-812.9827880859375	-1381.873168945312	979.075927734375	-815.0391235351562	-1292.229248046875	697.908447265625	-736.5048828125	-1321.53369140625	773.4332885742188	-798.7593383789062	-1279.226196289062	780.7669067382812	-751.77685546875	-1488.020141601562	1388.57275390625	-416.5538024902344	-1492.921508789062	1321.64306640625	-357.3124389648438	-1450.90673828125	1059.498413085938	-323.0408325195312	-1473.77685546875	1051.129150390625	-411.9951171875	-1302.185791015625	858.4244995117188	-358.8570251464844	-1342.734008789062	842.2952880859375	-299.10400390625	-1418.273071289062	998.0343017578125	-311.0743103027344	-1288.62451171875	684.9768676757812	-361.0218200683594	-1328.114501953125	753.9595947265625	-299.8831176757812	-1508.7548828125	1605.003540039062	-489.3045654296875	-1364.468994140625	1604.92822265625	-627.5870971679688	-1377.026245117188	1611.156494140625	-505.2132873535156	-1511.1630859375	1596.057739257812	-651.546142578125	-1486.665893554688	971.5984497070312	-750.5770874023438	-1479.535888671875	969.4840698242188	-391.7933349609375	-1348.997314453125	973.2742919921875	-449.1243286132812	-1372.2978515625	965.4051513671875	-711.6118774414062	-1458.960083007812	477.0541076660156	-729.881103515625	-1461.1015625	619.5609130859375	-741.6842041015625	-1550.701904296875	43.34221267700195	-683.2406616210938	-1507.126098632812	246.6825714111328	-720.1580200195312	-1334.137084960938	45.80464172363281	-622.517333984375	-1418.033081054688	45.52834701538086	-590.9852905273438	-1423.239013671875	40.90157699584961	-696.5720825195312	-1586.059692382812	41.32981109619141	-625.2034301757812	-1460.41357421875	477.5390319824219	-413.8788757324219	-1414.477783203125	741.7564697265625	-389.7573852539062	-1502.63916015625	56.76751327514648	-452.7638854980469	-1451.844360351562	352.4799499511719	-429.127197265625	-1323.816772460938	41.58403015136719	-519.6065673828125	-1400.4619140625	45.72798538208008	-546.9851684570312	-1417.125244140625	49.05061340332031	-448.8645935058594	-1575.462158203125	44.9783821105957	-505.0634460449219	nan	nan	nan	
2	0.01	-1563.768188476562	995.9578247070312	-505.2692565917969	-1571.195068359375	987.2985229492188	-636.1813354492188	-1565.695068359375	1058.693725585938	-569.3795776367188	-1332.02685546875	1217.313842773438	-566.635498046875	-1569.28369140625	1158.551025390625	-571.3131713867188	-1547.662475585938	1409.695190429688	-578.1734008789062	-1388.8232421875	1335.005981445312	-567.1041870117188	-1583.267944335938	1261.296264648438	-510.5829772949219	-1553.06201171875	1372.572509765625	-684.3770751953125	-1464.174560546875	1393.16357421875	-728.4678344726562	-1464.169921875	1276.341674804688	-802.0402221679688	-1413.227905273438	1081.340087890625	-814.1846923828125	-1476.620849609375	1055.0615234375	-764.3465576171875	-1292.291259765625	885.5595703125	-748.5490112304688	-1342.105346679688	856.5914916992188	-813.3387451171875	-1381.77197265625	979.1514282226562	-815.2678833007812	-1292.450317382812	697.814453125	-736.9652709960938	-1321.659423828125	773.4494018554688	-799.21826171875	-1279.505004882812	780.765625	-752.1888427734375	-1488.09619140625	1388.61865234375	-416.6695556640625	-1493.035766601562	1321.72705078125	-357.4201354980469	-1450.991943359375	1059.61279296875	-322.9762268066406	-1473.814208984375	1051.144165039062	-411.9634094238281	-1302.370361328125	858.4735717773438	-358.4677429199219	-1342.903076171875	842.46728515625	-298.7674865722656	-1418.344482421875	998.1871948242188	-310.9052734375	-1288.8916015625	685.0513916015625	-360.3973999023438	-1328.356689453125	754.0866088867188	-299.4172668457031	-1508.901489257812	1604.962646484375	-489.4135437011719	-1364.587524414062	1604.937622070312	-627.6896362304688	-1377.099487304688	1611.178344726562	-505.3284606933594	-1511.344360351562	1596.040649414062	-651.71875	-1486.750610351562	971.594970703125	-750.650146484375	-1479.819946289062	969.5031127929688	-391.9478759765625	-1349.046630859375	973.294677734375	-449.2141723632812	-1372.359619140625	965.4282836914062	-711.7271728515625	-1458.959228515625	477.0511474609375	-729.9258422851562	-1461.127319335938	619.5487670898438	-741.7362670898438	-1550.698486328125	43.34231185913086	-683.2389526367188	-1507.0849609375	246.659912109375	-720.1664428710938	-1334.136352539062	45.80903244018555	-622.5191650390625	-1418.03662109375	45.52507400512695	-590.96044921875	-1423.232299804688	40.90882110595703	-696.5816040039062	-1586.073852539062	41.33192443847656	-625.2129516601562	-1460.368041992188	477.52099609375	-413.9329833984375	-1414.703002929688	741.8953857421875	-389.2599182128906	-1502.646606445312	56.78688049316406	-452.7827758789062	-1451.748657226562	352.4703979492188	-429.2182922363281	-1323.80322265625	41.57468032836914	-519.6198120117188	-1400.448974609375	45.71586990356445	-547.0100708007812	-1417.150268554688	49.04075622558594	-448.8788146972656	-1575.462524414062	44.98300170898438	-505.0803833007812	nan	nan	nan	
3	0.02	-1563.914428710938	995.9189453125	-505.3886108398438	-1571.303833007812	987.2645874023438	-636.2802124023438	-1565.841186523438	1058.699462890625	-569.4933471679688	-1332.139404296875	1217.305053710938	-566.705810546875	-1569.371215820312	1158.551635742188	-571.4288330078125	-1547.791259765625	1409.6962890625	-578.30908203125	-1389.037719726562	1334.941650390625	-567.2464599609375	-1583.299194335938	1261.23974609375	-510.836669921875	-1553.181030273438	1372.569946289062	-684.5125122070312	-1464.255859375	1393.186767578125	-728.5816650390625	-1464.232788085938	1276.39990234375	-802.1942138671875	-1413.0634765625	1081.451538085938	-814.4195556640625	-1476.472045898438	1055.103149414062	-764.6875610351562	-1293.933959960938	884.6072998046875	-748.2017822265625	-1342.137451171875	856.6765747070312	-813.7921752929688	-1381.668701171875	979.2474365234375	-815.561767578125	-1292.713989257812	697.69384765625	-737.5601196289062	-1321.82177734375	773.4750366210938	-799.8034057617188	-1279.853393554688	780.7457275390625	-752.711181640625	-1488.191772460938	1388.675415039062	-416.8165588378906	-1493.177856445312	1321.826904296875	-357.5498352050781	-1451.10888671875	1059.752319335938	-322.8936157226562	-1473.864379882812	1051.161865234375	-411.9251098632812	-1302.527709960938	858.55029296875	-358.00048828125	-1343.121459960938	842.6713256835938	-298.3509521484375	-1418.434692382812	998.3712158203125	-310.6938171386719	-1289.151733398438	685.1407470703125	-359.6182861328125	-1328.678100585938	754.2535400390625	-298.8489074707031	-1509.10986328125	1604.9248046875	-489.56005859375	-1364.741088867188	1604.958251953125	-627.8374633789062	-1377.1904296875	1611.205810546875	-505.4710388183594	-1511.5595703125	1596.011962890625	-651.927978515625	-1486.846923828125	971.5880737304688	-750.740234375	-1480.144165039062	969.523193359375	-392.1260681152344	-1349.132690429688	973.3220825195312	-449.3219604492188	-1372.46484375	965.4513549804688	-711.8721923828125	-1458.955810546875	477.0474243164062	-729.980712890625	-1461.154052734375	619.5328369140625	-741.800537109375	-1550.693359375	43.34130477905273	-683.2362060546875	-1507.039306640625	246.6324615478516	-720.1763916015625	-1334.134643554688	45.81421279907227	-622.520263671875	-1417.875732421875	45.60624694824219	-591.0070190429688	-1423.2265625	40.91500473022461	-696.5897216796875	-1586.087280273438	41.33301162719727	-625.22216796875	-1460.309692382812	477.5002136230469	-413.9985656738281	-1414.95703125	742.0892944335938	-388.6229553222656	-1502.658203125	56.81225967407227	-452.8050537109375	-1451.620971679688	352.4656677246094	-429.3341064453125	-1323.791870117188	41.56422424316406	-519.6347045898438	-1400.43359375	45.70140075683594	-547.0419921875	-1417.1806640625	49.02701950073242	-448.8930053710938	-1575.463989257812	44.99118804931641	-505.0995178222656	nan	nan	nan	
4	0.03	-1564.072509765625	995.8724365234375	-505.5240783691406	-1571.4208984375	987.2239990234375	-636.395751953125	-1565.994262695312	1058.701904296875	-569.6240234375	-1332.279541015625	1217.296875	-566.79638671875	-1569.483520507812	1158.552978515625	-571.5697631835938	-1547.930297851562	1409.6982421875	-578.4686889648438	-1389.27392578125	1334.889404296875	-567.421875	-1583.349243164062	1261.195068359375	-511.0971069335938	-1553.308715820312	1372.56591796875	-684.6726684570312	-1464.343872070312	1393.210083007812	-728.7196044921875	-1464.31591796875	1276.462158203125	-802.3758544921875	-1412.896728515625	1081.572509765625	-814.7000732421875	-1476.319580078125	1055.146606445312	-765.0726318359375	-1296.299560546875	883.2306518554688	-747.60888671875	-1342.194580078125	856.778076171875	-814.3265991210938	-1381.578735351562	979.3592529296875	-815.91259765625	-1293.012329101562	697.5541381835938	-738.2837524414062	-1322.015258789062	773.5117797851562	-800.493896484375	-1280.2412109375	780.7012939453125	-753.323974609375	-1488.3017578125	1388.740234375	-416.9888000488281	-1493.341186523438	1321.93603515625	-357.6956176757812	-1451.25732421875	1059.908325195312	-322.7971496582031	-1473.92626953125	1051.180786132812	-411.883544921875	-1302.621459960938	858.6589965820312	-357.4749145507812	-1343.382568359375	842.8931884765625	-297.8753051757812	-1418.543090820312	998.57421875	-310.4503173828125	-1289.363403320312	685.245361328125	-358.7270202636719	-1329.066528320312	754.4570922851562	-298.2114868164062	-1509.379150390625	1604.897216796875	-489.7417907714844	-1364.92578125	1604.993286132812	-628.0303344726562	-1377.298706054688	1611.238037109375	-505.6359558105469	-1511.796875	1595.97412109375	-652.1646728515625	-1486.9482421875	971.5773315429688	-750.8436279296875	-1480.4736328125	969.5416870117188	-392.3124389648438	-1349.256225585938	973.3551025390625	-449.44189453125	-1372.617553710938	965.4718017578125	-712.0413818359375	-1458.948974609375	477.0428771972656	-730.0429077148438	-1461.17822265625	619.513671875	-741.8735961914062	-1550.6865234375	43.33849716186523	-683.232421875	-1506.99267578125	246.6015014648438	-720.1871948242188	-1334.131958007812	45.8195915222168	-622.5199584960938	-1417.627319335938	45.74109268188477	-591.1100463867188	-1423.223754882812	40.9190673828125	-696.5948486328125	-1586.098510742188	41.33240127563477	-625.230224609375	-1460.242065429688	477.4795532226562	-414.07177734375	-1415.201782226562	742.3338012695312	-387.8955993652344	-1502.673950195312	56.84165191650391	-452.8280029296875	-1451.467163085938	352.4689025878906	-429.4687194824219	-1323.784423828125	41.55373001098633	-519.6498413085938	-1400.416625976562	45.68463897705078	-547.0780029296875	-1417.214477539062	49.00976181030273	-448.9066162109375	-1575.466918945312	45.00318908691406	-505.1195068359375	nan	nan	nan	
